<?xml version="1.0" encoding="utf-8"?>
<!-- Generator: Adobe Illustrator 25.0.0, SVG Export Plug-In . SVG Version: 6.00 Build 0)  -->
<svg version="1.1" id="Capa_1" xmlns="http://www.w3.org/2000/svg" xmlns:xlink="http://www.w3.org/1999/xlink" x="0px" y="0px"
	 viewBox="0 0 141.7 141.7" style="enable-background:new 0 0 141.7 141.7;" xml:space="preserve">
<style type="text/css">
	.st0{fill:#85A64C;}
</style>
<path class="st0" d="M36.8,124.7h-4.7c-1.3,0-2.4-1.1-2.4-2.4v-103c0-1.3,1.1-2.4,2.4-2.4h4.7c1.3,0,2.4,1.1,2.4,2.4v103
	C39.2,123.7,38.2,124.7,36.8,124.7z"/>
<path class="st0" d="M51.5,124.7h-4.7c-1.3,0-2.4-1.1-2.4-2.4v-103c0-1.3,1.1-2.4,2.4-2.4h4.7c1.3,0,2.4,1.1,2.4,2.4v103
	C53.9,123.7,52.8,124.7,51.5,124.7z"/>
<path class="st0" d="M66.2,124.7h-4.7c-1.3,0-2.4-1.1-2.4-2.4v-103c0-1.3,1.1-2.4,2.4-2.4h4.7c1.3,0,2.4,1.1,2.4,2.4v103
	C68.6,123.7,67.5,124.7,66.2,124.7z"/>
<path class="st0" d="M80.8,124.7h-4.7c-1.3,0-2.4-1.1-2.4-2.4v-103c0-1.3,1.1-2.4,2.4-2.4h4.7c1.3,0,2.4,1.1,2.4,2.4v103
	C83.2,123.7,82.2,124.7,80.8,124.7z"/>
<path class="st0" d="M95.5,124.7h-4.7c-1.3,0-2.4-1.1-2.4-2.4v-103c0-1.3,1.1-2.4,2.4-2.4h4.7c1.3,0,2.4,1.1,2.4,2.4v103
	C97.9,123.7,96.8,124.7,95.5,124.7z"/>
<path class="st0" d="M110.2,124.7h-4.7c-1.3,0-2.4-1.1-2.4-2.4v-103c0-1.3,1.1-2.4,2.4-2.4h4.7c1.3,0,2.4,1.1,2.4,2.4v103
	C112.6,123.7,111.5,124.7,110.2,124.7z"/>
</svg>
