<?xml version="1.0" encoding="utf-8"?>
<!-- Generator: Adobe Illustrator 25.0.0, SVG Export Plug-In . SVG Version: 6.00 Build 0)  -->
<svg version="1.1" id="Capa_1" xmlns="http://www.w3.org/2000/svg" xmlns:xlink="http://www.w3.org/1999/xlink" x="0px" y="0px"
	 viewBox="0 0 141.7 141.7" style="enable-background:new 0 0 141.7 141.7;" xml:space="preserve">
<style type="text/css">
	.st0{fill:#85A64C;stroke:#85A64C;stroke-width:2;stroke-miterlimit:10;}
</style>
<g>
	<path class="st0" d="M117.5,50.3c-0.1,0-0.2,0-0.4,0l-8.6-1.4c-0.9-0.2-1.6-0.9-1.8-1.8l-1.4-8.6c-0.2-1.2,0.6-2.3,1.8-2.5
		c1.2-0.2,2.3,0.6,2.5,1.8l1.2,7.1l7.1,1.2c1.2,0.2,1.9,1.3,1.8,2.5C119.4,49.6,118.5,50.3,117.5,50.3z"/>
	<path class="st0" d="M118.9,73.2H95.8c-0.7,0-1.3-0.3-1.7-0.8c-0.4-0.5-0.5-1.2-0.4-1.9l1-3.7l-3.3-1.5c-1.1-0.5-1.5-1.8-1-2.8
		c0.5-1.1,1.8-1.5,2.8-1l4.9,2.3c0.9,0.4,1.4,1.5,1.2,2.5l-0.7,2.8h20.4c1.2,0,2.1,1,2.1,2.1C121.1,72.2,120.1,73.2,118.9,73.2z"/>
	<path class="st0" d="M124,80.3c-0.7,0-1.3-0.3-1.7-0.9l-5.1-7.1c-0.5-0.7-0.5-1.7,0-2.5l5.1-7.1c0.7-1,2-1.2,3-0.5
		c1,0.7,1.2,2,0.5,3l-4.2,5.9l4.2,5.9c0.7,1,0.5,2.3-0.5,3C124.9,80.1,124.4,80.3,124,80.3z"/>
	<path class="st0" d="M108.9,97.5c-0.5,0-1.1-0.2-1.5-0.6L91,80.5c-0.5-0.5-0.7-1.2-0.6-1.9c0.1-0.7,0.5-1.3,1.2-1.6l3.2-1.6l-1-3.9
		c-0.3-1.1,0.4-2.3,1.5-2.6c1.1-0.3,2.3,0.4,2.6,1.5l1.4,5.6c0.2,1-0.2,2-1.1,2.4l-2,1l14.3,14.3c0.8,0.8,0.8,2.2,0,3
		C110,97.3,109.4,97.5,108.9,97.5z"/>
	<path class="st0" d="M107.4,106.1c-0.1,0-0.2,0-0.4,0c-1.2-0.2-1.9-1.3-1.8-2.5l1.4-8.6c0.2-0.9,0.9-1.6,1.8-1.8l8.6-1.4
		c1.2-0.2,2.3,0.6,2.5,1.8c0.2,1.2-0.6,2.3-1.8,2.5l-7.1,1.2l-1.2,7.1C109.3,105.4,108.4,106.1,107.4,106.1z"/>
	<path class="st0" d="M84.5,107.6c-1.2,0-2.1-1-2.1-2.1V82.3c0-0.7,0.3-1.3,0.8-1.7c0.5-0.4,1.2-0.5,1.9-0.4l3.7,1l1.9-3.3
		c0.6-1,1.9-1.4,2.9-0.8c1,0.6,1.4,1.9,0.8,2.9l-2.7,4.7c-0.5,0.8-1.5,1.3-2.4,1l-2.6-0.7v20.4C86.7,106.6,85.7,107.6,84.5,107.6z"
		/>
	<path class="st0" d="M77.4,112.6c-0.7,0-1.3-0.3-1.7-0.9c-0.7-1-0.5-2.3,0.5-3l7.1-5.1c0.7-0.5,1.7-0.5,2.5,0l7.1,5.1
		c1,0.7,1.2,2,0.5,3c-0.7,1-2,1.2-3,0.5l-5.9-4.2l-5.9,4.2C78.3,112.5,77.9,112.6,77.4,112.6z"/>
	<path class="st0" d="M92.3,65.4c-0.2,0-0.3,0-0.5-0.1c-0.7-0.2-1.3-0.7-1.5-1.4L89,60.4l-3.7,1.4c-0.7,0.2-1.4,0.2-2-0.2
		c-0.6-0.4-0.9-1.1-0.9-1.8V36.6c0-1.2,1-2.1,2.1-2.1s2.1,1,2.1,2.1v20.1l2.9-1.1c0.5-0.2,1.1-0.2,1.7,0.1c0.5,0.2,0.9,0.7,1.1,1.2
		l0.9,2.5l14.2-14.2c0.8-0.8,2.2-0.8,3,0c0.8,0.8,0.8,2.2,0,3L93.8,64.8C93.4,65.2,92.9,65.4,92.3,65.4z"/>
	<path class="st0" d="M84.5,38.8c-0.4,0-0.9-0.1-1.2-0.4l-7.1-5.1c-1-0.7-1.2-2-0.5-3c0.7-1,2-1.2,3-0.5l5.9,4.2l5.9-4.2
		c1-0.7,2.3-0.5,3,0.5c0.7,1,0.5,2.3-0.5,3l-7.1,5.1C85.4,38.6,85,38.8,84.5,38.8z"/>
	<path class="st0" d="M68.9,117.5c-1.2,0-2.1-1-2.1-2.1V26.7c0-1.2,1-2.1,2.1-2.1s2.1,1,2.1,2.1v88.7
		C71.1,116.6,70.1,117.5,68.9,117.5z"/>
	<path class="st0" d="M56.5,96.7c-14.2,0-25.7-11.5-25.7-25.7c0-14.2,11.5-25.7,25.7-25.7c1.2,0,2.1,1,2.1,2.1s-1,2.1-2.1,2.1
		c-11.8,0-21.4,9.6-21.4,21.4c0,11.8,9.6,21.4,21.4,21.4c1.2,0,2.1,1,2.1,2.1S57.7,96.7,56.5,96.7z"/>
	<path class="st0" d="M56.5,113.1c-1.2,0-2.1-1-2.1-2.1v-8.9c0-1.2,1-2.1,2.1-2.1s2.1,1,2.1,2.1v8.9
		C58.7,112.1,57.7,113.1,56.5,113.1z"/>
	<path class="st0" d="M56.5,113.1c-1.2,0-2.1-1-2.1-2.1v-8.9c0-1.2,1-2.1,2.1-2.1s2.1,1,2.1,2.1v8.9
		C58.7,112.1,57.7,113.1,56.5,113.1z"/>
	<path class="st0" d="M42.9,110.7c-0.2,0-0.5,0-0.7-0.1c-1.1-0.4-1.7-1.6-1.3-2.7l3-8.3c0.4-1.1,1.6-1.7,2.7-1.3
		c1.1,0.4,1.7,1.6,1.3,2.7l-3,8.3C44.6,110.1,43.8,110.7,42.9,110.7z"/>
	<path class="st0" d="M56.5,113.1c-1.2,0-2.1-1-2.1-2.1v-8.9c0-1.2,1-2.1,2.1-2.1s2.1,1,2.1,2.1v8.9
		C58.7,112.1,57.7,113.1,56.5,113.1z"/>
	<path class="st0" d="M56.5,113.1c-1.2,0-2.1-1-2.1-2.1v-8.9c0-1.2,1-2.1,2.1-2.1s2.1,1,2.1,2.1v8.9
		C58.7,112.1,57.7,113.1,56.5,113.1z"/>
	<path class="st0" d="M56.5,113.1c-1.2,0-2.1-1-2.1-2.1v-8.9c0-1.2,1-2.1,2.1-2.1s2.1,1,2.1,2.1v8.9
		C58.7,112.1,57.7,113.1,56.5,113.1z"/>
	<path class="st0" d="M42.9,110.7c-0.2,0-0.5,0-0.7-0.1c-1.1-0.4-1.7-1.6-1.3-2.7l3-8.3c0.4-1.1,1.6-1.7,2.7-1.3
		c1.1,0.4,1.7,1.6,1.3,2.7l-3,8.3C44.6,110.1,43.8,110.7,42.9,110.7z"/>
	<path class="st0" d="M42.9,110.7c-0.2,0-0.5,0-0.7-0.1c-1.1-0.4-1.7-1.6-1.3-2.7l3-8.3c0.4-1.1,1.6-1.7,2.7-1.3
		c1.1,0.4,1.7,1.6,1.3,2.7l-3,8.3C44.6,110.1,43.8,110.7,42.9,110.7z"/>
	<path class="st0" d="M30.9,103.7c-0.5,0-1-0.2-1.4-0.5c-0.9-0.8-1-2.1-0.3-3l5.7-6.8c0.8-0.9,2.1-1,3-0.3c0.9,0.8,1,2.1,0.3,3
		l-5.7,6.8C32.1,103.5,31.5,103.7,30.9,103.7z"/>
	<path class="st0" d="M30.9,103.7c-0.5,0-1-0.2-1.4-0.5c-0.9-0.8-1-2.1-0.3-3l5.7-6.8c0.8-0.9,2.1-1,3-0.3c0.9,0.8,1,2.1,0.3,3
		l-5.7,6.8C32.1,103.5,31.5,103.7,30.9,103.7z"/>
	<path class="st0" d="M22,93.1c-0.7,0-1.5-0.4-1.9-1.1c-0.6-1-0.2-2.3,0.8-2.9l7.7-4.4c1-0.6,2.3-0.2,2.9,0.8c0.6,1,0.2,2.3-0.8,2.9
		l-7.7,4.4C22.7,93,22.4,93.1,22,93.1z"/>
	<path class="st0" d="M22,93.1c-0.7,0-1.5-0.4-1.9-1.1c-0.6-1-0.2-2.3,0.8-2.9l7.7-4.4c1-0.6,2.3-0.2,2.9,0.8c0.6,1,0.2,2.3-0.8,2.9
		l-7.7,4.4C22.7,93,22.4,93.1,22,93.1z"/>
	<path class="st0" d="M17.2,80.1c-1,0-1.9-0.7-2.1-1.8c-0.2-1.2,0.6-2.3,1.7-2.5l8.7-1.5c1.2-0.2,2.3,0.6,2.5,1.7
		c0.2,1.2-0.6,2.3-1.7,2.5l-8.7,1.5C17.5,80.1,17.4,80.1,17.2,80.1z"/>
	<path class="st0" d="M17.2,80.1c-1,0-1.9-0.7-2.1-1.8c-0.2-1.2,0.6-2.3,1.7-2.5l8.7-1.5c1.2-0.2,2.3,0.6,2.5,1.7
		c0.2,1.2-0.6,2.3-1.7,2.5l-8.7,1.5C17.5,80.1,17.4,80.1,17.2,80.1z"/>
	<path class="st0" d="M26,67.8c-0.1,0-0.2,0-0.4,0l-8.7-1.5c-1.2-0.2-1.9-1.3-1.7-2.5c0.2-1.2,1.3-1.9,2.5-1.7l8.7,1.5
		c1.2,0.2,1.9,1.3,1.7,2.5C27.9,67.1,27,67.8,26,67.8z"/>
	<path class="st0" d="M26,67.8c-0.1,0-0.2,0-0.4,0l-8.7-1.5c-1.2-0.2-1.9-1.3-1.7-2.5c0.2-1.2,1.3-1.9,2.5-1.7l8.7,1.5
		c1.2,0.2,1.9,1.3,1.7,2.5C27.9,67.1,27,67.8,26,67.8z"/>
	<path class="st0" d="M29.7,57.7c-0.4,0-0.7-0.1-1.1-0.3l-7.7-4.4c-1-0.6-1.4-1.9-0.8-2.9c0.6-1,1.9-1.4,2.9-0.8l7.7,4.4
		c1,0.6,1.4,1.9,0.8,2.9C31.1,57.3,30.4,57.7,29.7,57.7z"/>
	<path class="st0" d="M29.7,57.7c-0.4,0-0.7-0.1-1.1-0.3l-7.7-4.4c-1-0.6-1.4-1.9-0.8-2.9c0.6-1,1.9-1.4,2.9-0.8l7.7,4.4
		c1,0.6,1.4,1.9,0.8,2.9C31.1,57.3,30.4,57.7,29.7,57.7z"/>
	<path class="st0" d="M36.6,49.4c-0.6,0-1.2-0.3-1.6-0.8l-5.7-6.8c-0.8-0.9-0.6-2.3,0.3-3c0.9-0.8,2.3-0.6,3,0.3l5.7,6.8
		c0.8,0.9,0.6,2.3-0.3,3C37.6,49.2,37.1,49.4,36.6,49.4z"/>
	<path class="st0" d="M36.6,49.4c-0.6,0-1.2-0.3-1.6-0.8l-5.7-6.8c-0.8-0.9-0.6-2.3,0.3-3c0.9-0.8,2.3-0.6,3,0.3l5.7,6.8
		c0.8,0.9,0.6,2.3-0.3,3C37.6,49.2,37.1,49.4,36.6,49.4z"/>
	<path class="st0" d="M45.9,44c-0.9,0-1.7-0.5-2-1.4l-3-8.3c-0.4-1.1,0.2-2.3,1.3-2.7c1.1-0.4,2.3,0.2,2.7,1.3l3,8.3
		c0.4,1.1-0.2,2.3-1.3,2.7C46.4,44,46.2,44,45.9,44z"/>
	<path class="st0" d="M45.9,44c-0.9,0-1.7-0.5-2-1.4l-3-8.3c-0.4-1.1,0.2-2.3,1.3-2.7c1.1-0.4,2.3,0.2,2.7,1.3l3,8.3
		c0.4,1.1-0.2,2.3-1.3,2.7C46.4,44,46.2,44,45.9,44z"/>
	<path class="st0" d="M56.5,42.1c-1.2,0-2.1-1-2.1-2.1v-8.9c0-1.2,1-2.1,2.1-2.1s2.1,1,2.1,2.1V40C58.7,41.2,57.7,42.1,56.5,42.1z"
		/>
</g>
</svg>
